<svg width="161" height="59" viewBox="0 0 161 59" fill="none" xmlns="http://www.w3.org/2000/svg">
<rect width="161" height="59" fill="#F5F5F5"/>
<path d="M0 2C0 0.89543 0.895431 0 2 0H159C160.105 0 161 0.895431 161 2V57C161 58.1046 160.105 59 159 59H2C0.895434 59 0 58.1046 0 57V2Z" fill="#E5E5E5"/>
<path d="M36.1818 24H32.6591C32.4508 22.9867 32.0862 22.0966 31.5653 21.3295C31.054 20.5625 30.429 19.9186 29.6903 19.3977C28.9612 18.8674 28.1515 18.4697 27.2614 18.2045C26.3712 17.9394 25.4432 17.8068 24.4773 17.8068C22.7159 17.8068 21.1203 18.2519 19.6903 19.142C18.2699 20.0322 17.1383 21.3438 16.2955 23.0767C15.4621 24.8097 15.0455 26.9356 15.0455 29.4545C15.0455 31.9735 15.4621 34.0994 16.2955 35.8324C17.1383 37.5653 18.2699 38.8769 19.6903 39.767C21.1203 40.6572 22.7159 41.1023 24.4773 41.1023C25.4432 41.1023 26.3712 40.9697 27.2614 40.7045C28.1515 40.4394 28.9612 40.0464 29.6903 39.5256C30.429 38.9953 31.054 38.3466 31.5653 37.5795C32.0862 36.803 32.4508 35.9129 32.6591 34.9091H36.1818C35.9167 36.3958 35.4337 37.7263 34.733 38.9006C34.0322 40.0748 33.161 41.0739 32.1193 41.8977C31.0777 42.7121 29.9081 43.3324 28.6108 43.7585C27.3229 44.1847 25.9451 44.3977 24.4773 44.3977C21.9962 44.3977 19.7898 43.7917 17.858 42.5795C15.9261 41.3674 14.4063 39.6439 13.2983 37.4091C12.1903 35.1742 11.6364 32.5227 11.6364 29.4545C11.6364 26.3864 12.1903 23.7348 13.2983 21.5C14.4063 19.2652 15.9261 17.5417 17.858 16.3295C19.7898 15.1174 21.9962 14.5114 24.4773 14.5114C25.9451 14.5114 27.3229 14.7244 28.6108 15.1506C29.9081 15.5767 31.0777 16.2017 32.1193 17.0256C33.161 17.84 34.0322 18.8343 34.733 20.0085C35.4337 21.1733 35.9167 22.5038 36.1818 24Z" fill="#F75050"/>
<path d="M41.8743 14.9091H46.0788L55.9652 39.0568H56.3061L66.1925 14.9091H70.397V44H67.1016V21.8977H66.8175L57.7266 44H54.5447L45.4538 21.8977H45.1697V44H41.8743V14.9091Z" fill="#EF5252"/>
<path d="M78.6534 44H74.9602L85.642 14.9091H89.2784L99.9602 44H96.267L87.5739 19.5114H87.3466L78.6534 44ZM80.017 32.6364H94.9034V35.7614H80.017V32.6364ZM104.491 44V14.9091H114.321C116.603 14.9091 118.469 15.321 119.918 16.1449C121.376 16.9593 122.455 18.0625 123.156 19.4545C123.857 20.8466 124.207 22.3996 124.207 24.1136C124.207 25.8277 123.857 27.3854 123.156 28.7869C122.465 30.1884 121.395 31.3059 119.946 32.1392C118.497 32.9631 116.641 33.375 114.378 33.375H107.332V30.25H114.264C115.827 30.25 117.081 29.9801 118.028 29.4403C118.975 28.9006 119.662 28.1714 120.088 27.2528C120.524 26.3248 120.741 25.2784 120.741 24.1136C120.741 22.9489 120.524 21.9072 120.088 20.9886C119.662 20.0701 118.971 19.3504 118.014 18.8295C117.058 18.2992 115.789 18.0341 114.207 18.0341H108.014V44H104.491ZM129.882 44V14.9091H139.712C141.994 14.9091 143.859 15.321 145.308 16.1449C146.767 16.9593 147.846 18.0625 148.547 19.4545C149.248 20.8466 149.598 22.3996 149.598 24.1136C149.598 25.8277 149.248 27.3854 148.547 28.7869C147.856 30.1884 146.786 31.3059 145.337 32.1392C143.888 32.9631 142.032 33.375 139.768 33.375H132.723V30.25H139.655C141.217 30.25 142.472 29.9801 143.419 29.4403C144.366 28.9006 145.053 28.1714 145.479 27.2528C145.914 26.3248 146.132 25.2784 146.132 24.1136C146.132 22.9489 145.914 21.9072 145.479 20.9886C145.053 20.0701 144.361 19.3504 143.405 18.8295C142.448 18.2992 141.179 18.0341 139.598 18.0341H133.405V44H129.882Z" fill="#C6BEBE"/>
<path d="M2 1H159V-1H2V1ZM160 2V57H162V2H160ZM159 58H2V60H159V58ZM1 57V2H-1V57H1ZM2 58C1.44772 58 1 57.5523 1 57H-1C-1 58.6569 0.343152 60 2 60V58ZM160 57C160 57.5523 159.552 58 159 58V60C160.657 60 162 58.6569 162 57H160ZM159 1C159.552 1 160 1.44772 160 2H162C162 0.343143 160.657 -1 159 -1V1ZM2 -1C0.343146 -1 -1 0.343145 -1 2H1C1 1.44772 1.44771 1 2 1V-1Z" fill="black" fill-opacity="0.1"/>
</svg>
