<svg width="139" height="31" viewBox="0 0 139 31" fill="none" xmlns="http://www.w3.org/2000/svg">
<rect width="139" height="31" fill="#F5F5F5"/>
<path d="M25.1818 10H21.6591C21.4508 8.98674 21.0862 8.09659 20.5653 7.32955C20.054 6.5625 19.429 5.91856 18.6903 5.39773C17.9612 4.86742 17.1515 4.4697 16.2614 4.20455C15.3712 3.93939 14.4432 3.80682 13.4773 3.80682C11.7159 3.80682 10.1203 4.25189 8.69034 5.14205C7.26989 6.0322 6.13826 7.34375 5.29545 9.0767C4.46212 10.8097 4.04545 12.9356 4.04545 15.4545C4.04545 17.9735 4.46212 20.0994 5.29545 21.8324C6.13826 23.5653 7.26989 24.8769 8.69034 25.767C10.1203 26.6572 11.7159 27.1023 13.4773 27.1023C14.4432 27.1023 15.3712 26.9697 16.2614 26.7045C17.1515 26.4394 17.9612 26.0464 18.6903 25.5256C19.429 24.9953 20.054 24.3466 20.5653 23.5795C21.0862 22.803 21.4508 21.9129 21.6591 20.9091H25.1818C24.9167 22.3958 24.4337 23.7263 23.733 24.9006C23.0322 26.0748 22.161 27.0739 21.1193 27.8977C20.0777 28.7121 18.9081 29.3324 17.6108 29.7585C16.3229 30.1847 14.9451 30.3977 13.4773 30.3977C10.9962 30.3977 8.78977 29.7917 6.85795 28.5795C4.92614 27.3674 3.40625 25.6439 2.2983 23.4091C1.19034 21.1742 0.636364 18.5227 0.636364 15.4545C0.636364 12.3864 1.19034 9.73485 2.2983 7.5C3.40625 5.26515 4.92614 3.54167 6.85795 2.32955C8.78977 1.11742 10.9962 0.511363 13.4773 0.511363C14.9451 0.511363 16.3229 0.724431 17.6108 1.15057C18.9081 1.5767 20.0777 2.2017 21.1193 3.02557C22.161 3.83996 23.0322 4.83428 23.733 6.00852C24.4337 7.17329 24.9167 8.50379 25.1818 10Z" fill="#F75050"/>
<path d="M30.8743 0.90909H35.0788L44.9652 25.0568H45.3061L55.1925 0.90909H59.397V30H56.1016V7.89773H55.8175L46.7266 30H43.5447L34.4538 7.89773H34.1697V30H30.8743V0.90909Z" fill="#EF5252"/>
<path d="M67.6534 30H63.9602L74.642 0.90909H78.2784L88.9602 30H85.267L76.5739 5.51136H76.3466L67.6534 30ZM69.017 18.6364H83.9034V21.7614H69.017V18.6364ZM93.4915 30V0.90909H103.321C105.603 0.90909 107.469 1.32102 108.918 2.14489C110.376 2.95928 111.455 4.0625 112.156 5.45455C112.857 6.84659 113.207 8.39962 113.207 10.1136C113.207 11.8277 112.857 13.3854 112.156 14.7869C111.465 16.1884 110.395 17.3059 108.946 18.1392C107.497 18.9631 105.641 19.375 103.378 19.375H96.3324V16.25H103.264C104.827 16.25 106.081 15.9801 107.028 15.4403C107.975 14.9006 108.662 14.1714 109.088 13.2528C109.524 12.3248 109.741 11.2784 109.741 10.1136C109.741 8.94886 109.524 7.9072 109.088 6.98864C108.662 6.07008 107.971 5.35038 107.014 4.82955C106.058 4.29924 104.789 4.03409 103.207 4.03409H97.0142V30H93.4915ZM118.882 30V0.90909H128.712C130.994 0.90909 132.859 1.32102 134.308 2.14489C135.767 2.95928 136.846 4.0625 137.547 5.45455C138.248 6.84659 138.598 8.39962 138.598 10.1136C138.598 11.8277 138.248 13.3854 137.547 14.7869C136.856 16.1884 135.786 17.3059 134.337 18.1392C132.888 18.9631 131.032 19.375 128.768 19.375H121.723V16.25H128.655C130.217 16.25 131.472 15.9801 132.419 15.4403C133.366 14.9006 134.053 14.1714 134.479 13.2528C134.914 12.3248 135.132 11.2784 135.132 10.1136C135.132 8.94886 134.914 7.9072 134.479 6.98864C134.053 6.07008 133.361 5.35038 132.405 4.82955C131.448 4.29924 130.179 4.03409 128.598 4.03409H122.405V30H118.882Z" fill="#C6BEBE"/>
</svg>
